# xmcd
#
# Track frame offsets:
#	150
#	15292
#	45028
#	63356
#	79067
#	95347
#	112684
#	132618
#	148943
#	162530
#	179457
#	197144
#	212014
#	233974
#	252655
#	267685
#	290242
#	313637
#	328592
#	345897
#
# Disc length: 4682 seconds
#
# Revision: 15
# Processed by: cddbd v1.5.1PL2 Copyright (c) Steve Scherf et al.
# Submitted via: EasyCDDAExtractor 9.0.0.1
#
DISCID=29124814
DTITLE=Jethro Tull - The Very Best Of
DYEAR=2001
DGENRE=Classic Rock
TTITLE0=Living In The Past
TTITLE1=Aqualung
TTITLE2=Sweet Dream
TTITLE3=The Whistler
TTITLE4=Bungle In The Jungle
TTITLE5=The Witch's Promise
TTITLE6=Locomotive Breath
TTITLE7=Steel Monkey
TTITLE8=Thick As A Brick
TTITLE9=Bourée
TTITLE10=Too Old To Rock'N'Roll: Too Young To Die (Edited Version)
TTITLE11=Life Is A Long Song
TTITLE12=Songs From The Wood
TTITLE13=A New Day Yesterday
TTITLE14=Heavy Horses (Edited Version)
TTITLE15=Broadsword
TTITLE16=Root To Branches
TTITLE17=A Song For Jeffrey
TTITLE18=Minstrel In The Gallery (Edited Version)
TTITLE19=Cheerio
EXTD=
EXTT0=
EXTT1=
EXTT2=
EXTT3=
EXTT4=
EXTT5=
EXTT6=
EXTT7=
EXTT8=
EXTT9=
EXTT10=
EXTT11=
EXTT12=
EXTT13=
EXTT14=
EXTT15=
EXTT16=
EXTT17=
EXTT18=
EXTT19=
PLAYORDER=
